<?xml version="1.0" encoding="UTF-8"?>
<svg id="Layer_1" data-name="Layer 1" xmlns="http://www.w3.org/2000/svg" viewBox="0 0 176.33 209.85">
  <defs>
    <style>
      .cls-1 {
        font-size: 15.05px;
      }

      .cls-1, .cls-2 {
        font-family: QuicksandBoldOblique-Regular, Quicksand;
      }

      .cls-1, .cls-2, .cls-3 {
        fill: #fec111;
      }

      .cls-2 {
        font-size: 5.77px;
      }

      .cls-4 {
        stroke-width: .37px;
      }

      .cls-4, .cls-5 {
        fill: none;
        stroke: #fec111;
        stroke-miterlimit: 10;
      }

      .cls-5 {
        stroke-width: .97px;
      }
    </style>
  </defs>
  <g>
    <text class="cls-2" transform="translate(155.54 94.87) scale(.96 1)"><tspan x="0" y="0">R</tspan></text>
    <ellipse class="cls-4" cx="157.6" cy="92.8" rx="2.63" ry="2.74"/>
  </g>
  <path class="cls-3" d="M175.48,158.22c-1.22,11.04-3.45,21.79-8.71,31.61-4.79,8.95-11.53,15.69-21.17,18.44-16.06,4.57-33.13-.75-43.43-15.89-4.8-7.05-7.53-14.95-8.64-23.5-1.48-11.45-.51-22.77,1.67-34.03,1.95-10.09,5.3-19.63,10.45-28.43,4.54-7.76,10.24-14.36,17.72-19.17,3.83-2.46,7.9-3.99,12.44-4.08,2.27-.05,4.38-.73,6.27-2.11,4.02-2.92,5.73-7.85,4.49-12.95-1.09-4.43-5.23-8.06-9.81-8.58-4.5-.51-9.17,2.07-11.17,6.46-3.85,8.47-10.23,14.57-17.11,20.21-1.39,1.14-3,1.96-4.69,2.58-3.78,1.37-6.78,.08-8.53-3.69-1.32-2.84-1.83-5.9-2.07-9-.78-10.08,.3-20.05,1.55-30.02,.53-4.26,1.62-8.24,3.52-12.07,2.05-4.12,1.02-9.54-2.08-12.99-3.16-3.51-8.13-4.64-12.48-2.85-4.12,1.7-6.92,6.06-6.99,10.78-.03,1.96,.18,3.86,1.15,5.53,2.44,4.22,3.08,8.94,3.62,13.7,.11,1.01,.22,2.02,.44,3.01,.37,3.86,.91,7.7,.83,11.6-.07,3.03,.06,6.06,.03,9.09-.02,2.38-.17,4.74-.5,7.1-.55,1.25-.09,2.72-.76,3.95-.16,.31-.22,.67-.35,1-1.95,5.18-5.39,6.63-10.27,4.34-3.13-1.46-5.73-3.7-8.23-6.08-2.93-2.78-5.57-5.84-8.14-8.98-1.64-2.02-2.85-4.3-3.94-6.69-2.09-4.58-5.66-7.08-10.5-6.98-4.92,.1-8.42,2.78-10.33,7.53-2.89,7.18,1.89,15.56,9.65,15.97,8.84,.46,15.48,5,21.48,11.02,8.72,8.74,14.01,19.63,17.6,31.53,3.24,10.75,4.64,21.8,4.66,33.02,.02,12.45-2.54,24.22-9.84,34.39-8.14,11.34-19.11,16.88-32.7,16.77-9.59-.07-17.92-3.38-24.73-10.52-4.64-4.86-7.8-10.72-10.16-17.07-2.35-6.31-3.78-12.87-4.71-19.56-.03-.23,.02-.47,.03-.71-1.46-13.37-1.3-26.75,0-40.12,.09-3.35,.71-6.64,1.28-9.92,2.23-13.06,5.57-25.82,10.16-38.2,5.82-15.68,13.24-30.43,23.42-43.55,7.83-10.09,16.89-18.65,28.22-24.35C73.19,1.21,82.75-.69,92.77,.22c10.94,.99,20.66,5.37,29.49,12.03,10.5,7.92,18.74,18.03,25.73,29.31,9.48,15.3,16.19,31.89,21,49.37,2.66,9.66,4.57,19.47,5.89,29.41,.24,1.83,.4,3.68,.6,5.52,1.11,10.78,1.17,21.56,0,32.35Z"/>
  <g>
    <text class="cls-1" transform="translate(159.88 33.3) scale(.96 1)"><tspan x="0" y="0">R</tspan></text>
    <ellipse class="cls-5" cx="165.07" cy="28.1" rx="6.82" ry="7.12"/>
  </g>
</svg>