<?xml version="1.0" encoding="UTF-8"?>
<svg id="Layer_1" data-name="Layer 1" xmlns="http://www.w3.org/2000/svg" xmlns:xlink="http://www.w3.org/1999/xlink" viewBox="0 0 1098.35 679.63">
  <defs>
    <style>
      .cls-1 {
        fill: url(#new);
        stroke: #fec111;
        stroke-miterlimit: 10;
        stroke-width: 1.5px;
      }

      .cls-2 {
        fill: #fec111;
      }

      .cls-3 {
        fill: none;
      }
    </style>
    <pattern id="new" x="0" y="0" width="132.65" height="210.31" patternTransform="translate(156.11 58.51)" patternUnits="userSpaceOnUse" viewBox="0 0 132.65 210.31">
      <g>
        <rect class="cls-3" y="0" width="132.65" height="210.31"/>
        <g>
          <path class="cls-2" d="M113.54,232.13c.27-2.31,.75-4.57,1.91-6.63,1.05-1.88,2.52-3.29,4.63-3.86,3.51-.96,7.25,.16,9.5,3.33,1.05,1.48,1.65,3.13,1.89,4.92,.32,2.4,.11,4.77-.36,7.13-.43,2.11-1.16,4.11-2.29,5.96-.99,1.63-2.24,3.01-3.88,4.02-.84,.52-1.73,.84-2.72,.86-.5,0-.96,.15-1.37,.44-.88,.61-1.25,1.64-.98,2.71,.24,.93,1.14,1.69,2.15,1.8,.99,.11,2.01-.43,2.44-1.35,.84-1.78,2.24-3.05,3.74-4.24,.31-.24,.66-.41,1.03-.54,.83-.29,1.48-.02,1.87,.77,.29,.6,.4,1.24,.45,1.89,.17,2.11-.07,4.2-.34,6.29-.12,.89-.36,1.73-.77,2.53-.45,.86-.22,2,.45,2.72,.69,.74,1.78,.97,2.73,.6,.9-.36,1.51-1.27,1.53-2.26,0-.41-.04-.81-.25-1.16-.53-.88-.67-1.87-.79-2.87-.03-.21-.05-.42-.1-.63-.08-.81-.2-1.61-.18-2.43,.02-.64-.01-1.27,0-1.91,0-.5,.04-.99,.11-1.49,.12-.26,.02-.57,.17-.83,.04-.06,.05-.14,.08-.21,.43-1.09,1.18-1.39,2.25-.91,.68,.31,1.25,.78,1.8,1.27,.64,.58,1.22,1.22,1.78,1.88,.36,.42,.62,.9,.86,1.4,.46,.96,1.24,1.48,2.3,1.46,1.08-.02,1.84-.58,2.26-1.58,.63-1.51-.41-3.26-2.11-3.35-1.93-.1-3.39-1.05-4.7-2.31-1.91-1.83-3.07-4.12-3.85-6.61-.71-2.25-1.02-4.57-1.02-6.92,0-2.61,.56-5.08,2.15-7.21,1.78-2.38,4.18-3.54,7.16-3.52,2.1,.02,3.92,.71,5.41,2.2,1.02,1.02,1.71,2.25,2.22,3.58,.51,1.32,.83,2.7,1.03,4.1,0,.05,0,.1,0,.15,.32,2.8,.28,5.61,0,8.41-.02,.7-.16,1.39-.28,2.08-.49,2.74-1.22,5.41-2.22,8.01-1.27,3.29-2.9,6.38-5.12,9.13-1.71,2.12-3.7,3.91-6.18,5.1-1.99,.96-4.08,1.35-6.27,1.16-2.39-.21-4.52-1.13-6.45-2.52-2.3-1.66-4.1-3.78-5.63-6.14-2.07-3.21-3.54-6.69-4.6-10.35-.58-2.02-1-4.08-1.29-6.17-.05-.38-.09-.77-.13-1.16-.24-2.26-.26-4.52,0-6.78Z"/>
          <path class="cls-2" d="M110.83,191.2c2.31,.27,4.57,.75,6.63,1.91,1.88,1.05,3.29,2.52,3.86,4.63,.96,3.51-.16,7.25-3.33,9.5-1.48,1.05-3.13,1.65-4.92,1.89-2.4,.32-4.77,.11-7.13-.36-2.11-.43-4.11-1.16-5.96-2.29-1.63-.99-3.01-2.24-4.02-3.88-.52-.84-.84-1.73-.86-2.72,0-.5-.15-.96-.44-1.37-.61-.88-1.64-1.25-2.71-.98-.93,.24-1.69,1.14-1.8,2.15-.11,.99,.43,2.01,1.35,2.44,1.78,.84,3.05,2.24,4.24,3.74,.24,.31,.41,.66,.54,1.03,.29,.83,.02,1.48-.77,1.87-.6,.29-1.24,.4-1.89,.45-2.11,.17-4.2-.07-6.29-.34-.89-.12-1.73-.36-2.53-.77-.86-.45-2-.22-2.72,.45-.74,.69-.97,1.78-.6,2.73,.36,.9,1.27,1.51,2.26,1.53,.41,0,.81-.04,1.16-.25,.88-.53,1.87-.67,2.87-.79,.21-.03,.42-.05,.63-.1,.81-.08,1.61-.2,2.43-.18,.64,.02,1.27-.01,1.91,0,.5,0,.99,.04,1.49,.11,.26,.12,.57,.02,.83,.17,.06,.04,.14,.05,.21,.08,1.09,.43,1.39,1.18,.91,2.25-.31,.68-.78,1.25-1.27,1.8-.58,.64-1.22,1.22-1.88,1.78-.42,.36-.9,.62-1.4,.86-.96,.46-1.48,1.24-1.46,2.3,.02,1.08,.58,1.84,1.58,2.26,1.51,.63,3.26-.41,3.35-2.11,.1-1.93,1.05-3.39,2.31-4.7,1.83-1.91,4.12-3.07,6.61-3.85,2.25-.71,4.57-1.02,6.92-1.02,2.61,0,5.08,.56,7.21,2.15,2.38,1.78,3.54,4.18,3.52,7.16-.02,2.1-.71,3.92-2.2,5.41-1.02,1.02-2.25,1.71-3.58,2.22-1.32,.51-2.7,.83-4.1,1.03-.05,0-.1,0-.15,0-2.8,.32-5.61,.28-8.41,0-.7-.02-1.39-.16-2.08-.28-2.74-.49-5.41-1.22-8.01-2.22-3.29-1.27-6.38-2.9-9.13-5.12-2.12-1.71-3.91-3.7-5.1-6.18-.96-1.99-1.35-4.08-1.16-6.27,.21-2.39,1.13-4.52,2.52-6.45,1.66-2.3,3.78-4.1,6.14-5.63,3.21-2.07,6.69-3.54,10.35-4.6,2.02-.58,4.08-1,6.17-1.29,.38-.05,.77-.09,1.16-.13,2.26-.24,4.52-.26,6.78,0Z"/>
          <path class="cls-2" d="M151.75,188.49c-.27,2.31-.75,4.57-1.91,6.63-1.05,1.88-2.52,3.29-4.63,3.86-3.51,.96-7.25-.16-9.5-3.33-1.05-1.48-1.65-3.13-1.89-4.92-.32-2.4-.11-4.77,.36-7.13,.43-2.11,1.16-4.11,2.29-5.96,.99-1.63,2.24-3.01,3.88-4.02,.84-.52,1.73-.84,2.72-.86,.5,0,.96-.15,1.37-.44,.88-.61,1.25-1.64,.98-2.71-.24-.93-1.14-1.69-2.15-1.8-.99-.11-2.01,.43-2.44,1.35-.84,1.78-2.24,3.05-3.74,4.24-.31,.24-.66,.41-1.03,.54-.83,.29-1.48,.02-1.87-.77-.29-.6-.4-1.24-.45-1.89-.17-2.11,.07-4.2,.34-6.29,.12-.89,.36-1.73,.77-2.53,.45-.86,.22-2-.45-2.72-.69-.74-1.78-.97-2.73-.6-.9,.36-1.51,1.27-1.53,2.26,0,.41,.04,.81,.25,1.16,.53,.88,.67,1.87,.79,2.87,.03,.21,.05,.42,.1,.63,.08,.81,.2,1.61,.18,2.43-.02,.64,.01,1.27,0,1.91,0,.5-.04,.99-.11,1.49-.12,.26-.02,.57-.17,.83-.04,.06-.05,.14-.08,.21-.43,1.09-1.18,1.39-2.25,.91-.68-.31-1.25-.78-1.8-1.27-.64-.58-1.22-1.22-1.78-1.88-.36-.42-.62-.9-.86-1.4-.46-.96-1.24-1.48-2.3-1.46-1.08,.02-1.84,.58-2.26,1.58-.63,1.51,.41,3.26,2.11,3.35,1.93,.1,3.39,1.05,4.7,2.31,1.91,1.83,3.07,4.12,3.85,6.61,.71,2.25,1.02,4.57,1.02,6.92,0,2.61-.56,5.08-2.15,7.21-1.78,2.38-4.18,3.54-7.16,3.52-2.1-.02-3.92-.71-5.41-2.2-1.02-1.02-1.71-2.25-2.22-3.58-.51-1.32-.83-2.7-1.03-4.1,0-.05,0-.1,0-.15-.32-2.8-.28-5.61,0-8.41,.02-.7,.16-1.39,.28-2.08,.49-2.74,1.22-5.41,2.22-8.01,1.27-3.29,2.9-6.38,5.12-9.13,1.71-2.12,3.7-3.91,6.18-5.1,1.99-.96,4.08-1.35,6.27-1.16,2.39,.21,4.52,1.13,6.45,2.52,2.3,1.66,4.1,3.78,5.63,6.14,2.07,3.21,3.54,6.69,4.6,10.35,.58,2.02,1,4.08,1.29,6.17,.05,.38,.09,.77,.13,1.16,.24,2.26,.26,4.52,0,6.78Z"/>
          <path class="cls-2" d="M154.47,229.42c-2.31-.27-4.57-.75-6.63-1.91-1.88-1.05-3.29-2.52-3.86-4.63-.96-3.51,.16-7.25,3.33-9.5,1.48-1.05,3.13-1.65,4.92-1.89,2.4-.32,4.77-.11,7.13,.36,2.11,.43,4.11,1.16,5.96,2.29,1.63,.99,3.01,2.24,4.02,3.88,.52,.84,.84,1.73,.86,2.72,0,.5,.15,.96,.44,1.37,.61,.88,1.64,1.25,2.71,.98,.93-.24,1.69-1.14,1.8-2.15,.11-.99-.43-2.01-1.35-2.44-1.78-.84-3.05-2.24-4.24-3.74-.24-.31-.41-.66-.54-1.03-.29-.83-.02-1.48,.77-1.87,.6-.29,1.24-.4,1.89-.45,2.11-.17,4.2,.07,6.29,.34,.89,.12,1.73,.36,2.53,.77,.86,.45,2,.22,2.72-.45,.74-.69,.97-1.78,.6-2.73-.36-.9-1.27-1.51-2.26-1.53-.41,0-.81,.04-1.16,.25-.88,.53-1.87,.67-2.87,.79-.21,.03-.42,.05-.63,.1-.81,.08-1.61,.2-2.43,.18-.64-.02-1.27,.01-1.91,0-.5,0-.99-.04-1.49-.11-.26-.12-.57-.02-.83-.17-.06-.04-.14-.05-.21-.08-1.09-.43-1.39-1.18-.91-2.25,.31-.68,.78-1.25,1.27-1.8,.58-.64,1.22-1.22,1.88-1.78,.42-.36,.9-.62,1.4-.86,.96-.46,1.48-1.24,1.46-2.3-.02-1.08-.58-1.84-1.58-2.26-1.51-.63-3.26,.41-3.35,2.11-.1,1.93-1.05,3.39-2.31,4.7-1.83,1.91-4.12,3.07-6.61,3.85-2.25,.71-4.57,1.02-6.92,1.02-2.61,0-5.08-.56-7.21-2.15-2.38-1.78-3.54-4.18-3.52-7.16,.02-2.1,.71-3.92,2.2-5.41,1.02-1.02,2.25-1.71,3.58-2.22,1.32-.51,2.7-.83,4.1-1.03,.05,0,.1,0,.15,0,2.8-.32,5.61-.28,8.41,0,.7,.02,1.39,.16,2.08,.28,2.74,.49,5.41,1.22,8.01,2.22,3.29,1.27,6.38,2.9,9.13,5.12,2.12,1.71,3.91,3.7,5.1,6.18,.96,1.99,1.35,4.08,1.16,6.27-.21,2.39-1.13,4.52-2.52,6.45-1.66,2.3-3.78,4.1-6.14,5.63-3.21,2.07-6.69,3.54-10.35,4.6-2.02,.58-4.08,1-6.17,1.29-.38,.05-.77,.09-1.16,.13-2.26,.24-4.52,.26-6.78,0Z"/>
        </g>
        <g>
          <path class="cls-2" d="M-19.11,232.13c.27-2.31,.75-4.57,1.91-6.63,1.05-1.88,2.52-3.29,4.63-3.86,3.51-.96,7.25,.16,9.5,3.33,1.05,1.48,1.65,3.13,1.89,4.92,.32,2.4,.11,4.77-.36,7.13-.43,2.11-1.16,4.11-2.29,5.96-.99,1.63-2.24,3.01-3.88,4.02-.84,.52-1.73,.84-2.72,.86-.5,0-.96,.15-1.37,.44-.88,.61-1.25,1.64-.98,2.71,.24,.93,1.14,1.69,2.15,1.8,.99,.11,2.01-.43,2.44-1.35,.84-1.78,2.24-3.05,3.74-4.24,.31-.24,.66-.41,1.03-.54,.83-.29,1.48-.02,1.87,.77,.29,.6,.4,1.24,.45,1.89,.17,2.11-.07,4.2-.34,6.29-.12,.89-.36,1.73-.77,2.53-.45,.86-.22,2,.45,2.72,.69,.74,1.78,.97,2.73,.6,.9-.36,1.51-1.27,1.53-2.26,0-.41-.04-.81-.25-1.16-.53-.88-.67-1.87-.79-2.87-.03-.21-.05-.42-.1-.63-.08-.81-.2-1.61-.18-2.43,.02-.64-.01-1.27,0-1.91,0-.5,.04-.99,.11-1.49,.12-.26,.02-.57,.17-.83,.04-.06,.05-.14,.08-.21,.43-1.09,1.18-1.39,2.25-.91,.68,.31,1.25,.78,1.8,1.27,.64,.58,1.22,1.22,1.78,1.88,.36,.42,.62,.9,.86,1.4,.46,.96,1.24,1.48,2.3,1.46,1.08-.02,1.84-.58,2.26-1.58,.63-1.51-.41-3.26-2.11-3.35-1.93-.1-3.39-1.05-4.7-2.31-1.91-1.83-3.07-4.12-3.85-6.61-.71-2.25-1.02-4.57-1.02-6.92,0-2.61,.56-5.08,2.15-7.21,1.78-2.38,4.18-3.54,7.16-3.52,2.1,.02,3.92,.71,5.41,2.2,1.02,1.02,1.71,2.25,2.22,3.58,.51,1.32,.83,2.7,1.03,4.1,0,.05,0,.1,0,.15,.32,2.8,.28,5.61,0,8.41-.02,.7-.16,1.39-.28,2.08-.49,2.74-1.22,5.41-2.22,8.01-1.27,3.29-2.9,6.38-5.12,9.13-1.71,2.12-3.7,3.91-6.18,5.1-1.99,.96-4.08,1.35-6.27,1.16-2.39-.21-4.52-1.13-6.45-2.52-2.3-1.66-4.1-3.78-5.63-6.14-2.07-3.21-3.54-6.69-4.6-10.35-.58-2.02-1-4.08-1.29-6.17-.05-.38-.09-.77-.13-1.16-.24-2.26-.26-4.52,0-6.78Z"/>
          <path class="cls-2" d="M-21.82,191.2c2.31,.27,4.57,.75,6.63,1.91,1.88,1.05,3.29,2.52,3.86,4.63,.96,3.51-.16,7.25-3.33,9.5-1.48,1.05-3.13,1.65-4.92,1.89-2.4,.32-4.77,.11-7.13-.36-2.11-.43-4.11-1.16-5.96-2.29-1.63-.99-3.01-2.24-4.02-3.88-.52-.84-.84-1.73-.86-2.72,0-.5-.15-.96-.44-1.37-.61-.88-1.64-1.25-2.71-.98-.93,.24-1.69,1.14-1.8,2.15-.11,.99,.43,2.01,1.35,2.44,1.78,.84,3.05,2.24,4.24,3.74,.24,.31,.41,.66,.54,1.03,.29,.83,.02,1.48-.77,1.87-.6,.29-1.24,.4-1.89,.45-2.11,.17-4.2-.07-6.29-.34-.89-.12-1.73-.36-2.53-.77-.86-.45-2-.22-2.72,.45-.74,.69-.97,1.78-.6,2.73,.36,.9,1.27,1.51,2.26,1.53,.41,0,.81-.04,1.16-.25,.88-.53,1.87-.67,2.87-.79,.21-.03,.42-.05,.63-.1,.81-.08,1.61-.2,2.43-.18,.64,.02,1.27-.01,1.91,0,.5,0,.99,.04,1.49,.11,.26,.12,.57,.02,.83,.17,.06,.04,.14,.05,.21,.08,1.09,.43,1.39,1.18,.91,2.25-.31,.68-.78,1.25-1.27,1.8-.58,.64-1.22,1.22-1.88,1.78-.42,.36-.9,.62-1.4,.86-.96,.46-1.48,1.24-1.46,2.3,.02,1.08,.58,1.84,1.58,2.26,1.51,.63,3.26-.41,3.35-2.11,.1-1.93,1.05-3.39,2.31-4.7,1.83-1.91,4.12-3.07,6.61-3.85,2.25-.71,4.57-1.02,6.92-1.02,2.61,0,5.08,.56,7.21,2.15,2.38,1.78,3.54,4.18,3.52,7.16-.02,2.1-.71,3.92-2.2,5.41-1.02,1.02-2.25,1.71-3.58,2.22-1.32,.51-2.7,.83-4.1,1.03-.05,0-.1,0-.15,0-2.8,.32-5.61,.28-8.41,0-.7-.02-1.39-.16-2.08-.28-2.74-.49-5.41-1.22-8.01-2.22-3.29-1.27-6.38-2.9-9.13-5.12-2.12-1.71-3.91-3.7-5.1-6.18-.96-1.99-1.35-4.08-1.16-6.27,.21-2.39,1.13-4.52,2.52-6.45,1.66-2.3,3.78-4.1,6.14-5.63,3.21-2.07,6.69-3.54,10.35-4.6,2.02-.58,4.08-1,6.17-1.29,.38-.05,.77-.09,1.16-.13,2.26-.24,4.52-.26,6.78,0Z"/>
          <path class="cls-2" d="M19.11,188.49c-.27,2.31-.75,4.57-1.91,6.63-1.05,1.88-2.52,3.29-4.63,3.86-3.51,.96-7.25-.16-9.5-3.33-1.05-1.48-1.65-3.13-1.89-4.92-.32-2.4-.11-4.77,.36-7.13,.43-2.11,1.16-4.11,2.29-5.96,.99-1.63,2.24-3.01,3.88-4.02,.84-.52,1.73-.84,2.72-.86,.5,0,.96-.15,1.37-.44,.88-.61,1.25-1.64,.98-2.71-.24-.93-1.14-1.69-2.15-1.8-.99-.11-2.01,.43-2.44,1.35-.84,1.78-2.24,3.05-3.74,4.24-.31,.24-.66,.41-1.03,.54-.83,.29-1.48,.02-1.87-.77-.29-.6-.4-1.24-.45-1.89-.17-2.11,.07-4.2,.34-6.29,.12-.89,.36-1.73,.77-2.53,.45-.86,.22-2-.45-2.72-.69-.74-1.78-.97-2.73-.6-.9,.36-1.51,1.27-1.53,2.26,0,.41,.04,.81,.25,1.16,.53,.88,.67,1.87,.79,2.87,.03,.21,.05,.42,.1,.63,.08,.81,.2,1.61,.18,2.43-.02,.64,.01,1.27,0,1.91,0,.5-.04,.99-.11,1.49-.12,.26-.02,.57-.17,.83-.04,.06-.05,.14-.08,.21-.43,1.09-1.18,1.39-2.25,.91-.68-.31-1.25-.78-1.8-1.27-.64-.58-1.22-1.22-1.78-1.88-.36-.42-.62-.9-.86-1.4-.46-.96-1.24-1.48-2.3-1.46-1.08,.02-1.84,.58-2.26,1.58-.63,1.51,.41,3.26,2.11,3.35,1.93,.1,3.39,1.05,4.7,2.31,1.91,1.83,3.07,4.12,3.85,6.61,.71,2.25,1.02,4.57,1.02,6.92,0,2.61-.56,5.08-2.15,7.21-1.78,2.38-4.18,3.54-7.16,3.52-2.1-.02-3.92-.71-5.41-2.2-1.02-1.02-1.71-2.25-2.22-3.58-.51-1.32-.83-2.7-1.03-4.1,0-.05,0-.1,0-.15-.32-2.8-.28-5.61,0-8.41,.02-.7,.16-1.39,.28-2.08,.49-2.74,1.22-5.41,2.22-8.01,1.27-3.29,2.9-6.38,5.12-9.13,1.71-2.12,3.7-3.91,6.18-5.1,1.99-.96,4.08-1.35,6.27-1.16,2.39,.21,4.52,1.13,6.45,2.52,2.3,1.66,4.1,3.78,5.63,6.14,2.07,3.21,3.54,6.69,4.6,10.35,.58,2.02,1,4.08,1.29,6.17,.05,.38,.09,.77,.13,1.16,.24,2.26,.26,4.52,0,6.78Z"/>
          <path class="cls-2" d="M21.82,229.42c-2.31-.27-4.57-.75-6.63-1.91-1.88-1.05-3.29-2.52-3.86-4.63-.96-3.51,.16-7.25,3.33-9.5,1.48-1.05,3.13-1.65,4.92-1.89,2.4-.32,4.77-.11,7.13,.36,2.11,.43,4.11,1.16,5.96,2.29,1.63,.99,3.01,2.24,4.02,3.88,.52,.84,.84,1.73,.86,2.72,0,.5,.15,.96,.44,1.37,.61,.88,1.64,1.25,2.71,.98,.93-.24,1.69-1.14,1.8-2.15,.11-.99-.43-2.01-1.35-2.44-1.78-.84-3.05-2.24-4.24-3.74-.24-.31-.41-.66-.54-1.03-.29-.83-.02-1.48,.77-1.87,.6-.29,1.24-.4,1.89-.45,2.11-.17,4.2,.07,6.29,.34,.89,.12,1.73,.36,2.53,.77,.86,.45,2,.22,2.72-.45,.74-.69,.97-1.78,.6-2.73-.36-.9-1.27-1.51-2.26-1.53-.41,0-.81,.04-1.16,.25-.88,.53-1.87,.67-2.87,.79-.21,.03-.42,.05-.63,.1-.81,.08-1.61,.2-2.43,.18-.64-.02-1.27,.01-1.91,0-.5,0-.99-.04-1.49-.11-.26-.12-.57-.02-.83-.17-.06-.04-.14-.05-.21-.08-1.09-.43-1.39-1.18-.91-2.25,.31-.68,.78-1.25,1.27-1.8,.58-.64,1.22-1.22,1.88-1.78,.42-.36,.9-.62,1.4-.86,.96-.46,1.48-1.24,1.46-2.3-.02-1.08-.58-1.84-1.58-2.26-1.51-.63-3.26,.41-3.35,2.11-.1,1.93-1.05,3.39-2.31,4.7-1.83,1.91-4.12,3.07-6.61,3.85-2.25,.71-4.57,1.02-6.92,1.02-2.61,0-5.08-.56-7.21-2.15-2.38-1.78-3.54-4.18-3.52-7.16,.02-2.1,.71-3.92,2.2-5.41,1.02-1.02,2.25-1.71,3.58-2.22,1.32-.51,2.7-.83,4.1-1.03,.05,0,.1,0,.15,0,2.8-.32,5.61-.28,8.41,0,.7,.02,1.39,.16,2.08,.28,2.74,.49,5.41,1.22,8.01,2.22,3.29,1.27,6.38,2.9,9.13,5.12,2.12,1.71,3.91,3.7,5.1,6.18,.96,1.99,1.35,4.08,1.16,6.27-.21,2.39-1.13,4.52-2.52,6.45-1.66,2.3-3.78,4.1-6.14,5.63-3.21,2.07-6.69,3.54-10.35,4.6-2.02,.58-4.08,1-6.17,1.29-.38,.05-.77,.09-1.16,.13-2.26,.24-4.52,.26-6.78,0Z"/>
        </g>
        <g>
          <path class="cls-2" d="M47.22,126.98c.27-2.31,.75-4.57,1.91-6.63,1.05-1.88,2.52-3.29,4.63-3.86,3.51-.96,7.25,.16,9.5,3.33,1.05,1.48,1.65,3.13,1.89,4.92,.32,2.4,.11,4.77-.36,7.13-.43,2.11-1.16,4.11-2.29,5.96-.99,1.63-2.24,3.01-3.88,4.02-.84,.52-1.73,.84-2.72,.86-.5,0-.96,.15-1.37,.44-.88,.61-1.25,1.64-.98,2.71,.24,.93,1.14,1.69,2.15,1.8,.99,.11,2.01-.43,2.44-1.35,.84-1.78,2.24-3.05,3.74-4.24,.31-.24,.66-.41,1.03-.54,.83-.29,1.48-.02,1.87,.77,.29,.6,.4,1.24,.45,1.89,.17,2.11-.07,4.2-.34,6.29-.12,.89-.36,1.73-.77,2.53-.45,.86-.22,2,.45,2.72,.69,.74,1.78,.97,2.73,.6,.9-.36,1.51-1.27,1.53-2.26,0-.41-.04-.81-.25-1.16-.53-.88-.67-1.87-.79-2.87-.03-.21-.05-.42-.1-.63-.08-.81-.2-1.61-.18-2.43,.02-.64-.01-1.27,0-1.91,0-.5,.04-.99,.11-1.49,.12-.26,.02-.57,.17-.83,.04-.06,.05-.14,.08-.21,.43-1.09,1.18-1.39,2.25-.91,.68,.31,1.25,.78,1.8,1.27,.64,.58,1.22,1.22,1.78,1.88,.36,.42,.62,.9,.86,1.4,.46,.96,1.24,1.48,2.3,1.46,1.08-.02,1.84-.58,2.26-1.58,.63-1.51-.41-3.26-2.11-3.35-1.93-.1-3.39-1.05-4.7-2.31-1.91-1.83-3.07-4.12-3.85-6.61-.71-2.25-1.02-4.57-1.02-6.92,0-2.61,.56-5.08,2.15-7.21,1.78-2.38,4.18-3.54,7.16-3.52,2.1,.02,3.92,.71,5.41,2.2,1.02,1.02,1.71,2.25,2.22,3.58,.51,1.32,.83,2.7,1.03,4.1,0,.05,0,.1,0,.15,.32,2.8,.28,5.61,0,8.41-.02,.7-.16,1.39-.28,2.08-.49,2.74-1.22,5.41-2.22,8.01-1.27,3.29-2.9,6.38-5.12,9.13-1.71,2.12-3.7,3.91-6.18,5.1-1.99,.96-4.08,1.35-6.27,1.16-2.39-.21-4.52-1.13-6.45-2.52-2.3-1.66-4.1-3.78-5.63-6.14-2.07-3.21-3.54-6.69-4.6-10.35-.58-2.02-1-4.08-1.29-6.17-.05-.38-.09-.77-.13-1.16-.24-2.26-.26-4.52,0-6.78Z"/>
          <path class="cls-2" d="M44.5,86.05c2.31,.27,4.57,.75,6.63,1.91,1.88,1.05,3.29,2.52,3.86,4.63,.96,3.51-.16,7.25-3.33,9.5-1.48,1.05-3.13,1.65-4.92,1.89-2.4,.32-4.77,.11-7.13-.36-2.11-.43-4.11-1.16-5.96-2.29-1.63-.99-3.01-2.24-4.02-3.88-.52-.84-.84-1.73-.86-2.72,0-.5-.15-.96-.44-1.37-.61-.88-1.64-1.25-2.71-.98-.93,.24-1.69,1.14-1.8,2.15-.11,.99,.43,2.01,1.35,2.44,1.78,.84,3.05,2.24,4.24,3.74,.24,.31,.41,.66,.54,1.03,.29,.83,.02,1.48-.77,1.87-.6,.29-1.24,.4-1.89,.45-2.11,.17-4.2-.07-6.29-.34-.89-.12-1.73-.36-2.53-.77-.86-.45-2-.22-2.72,.45-.74,.69-.97,1.78-.6,2.73,.36,.9,1.27,1.51,2.26,1.53,.41,0,.81-.04,1.16-.25,.88-.53,1.87-.67,2.87-.79,.21-.03,.42-.05,.63-.1,.81-.08,1.61-.2,2.43-.18,.64,.02,1.27-.01,1.91,0,.5,0,.99,.04,1.49,.11,.26,.12,.57,.02,.83,.17,.06,.04,.14,.05,.21,.08,1.09,.43,1.39,1.18,.91,2.25-.31,.68-.78,1.25-1.27,1.8-.58,.64-1.22,1.22-1.88,1.78-.42,.36-.9,.62-1.4,.86-.96,.46-1.48,1.24-1.46,2.3,.02,1.08,.58,1.84,1.58,2.26,1.51,.63,3.26-.41,3.35-2.11,.1-1.93,1.05-3.39,2.31-4.7,1.83-1.91,4.12-3.07,6.61-3.85,2.25-.71,4.57-1.02,6.92-1.02,2.61,0,5.08,.56,7.21,2.15,2.38,1.78,3.54,4.18,3.52,7.16-.02,2.1-.71,3.92-2.2,5.41-1.02,1.02-2.25,1.71-3.58,2.22-1.32,.51-2.7,.83-4.1,1.03-.05,0-.1,0-.15,0-2.8,.32-5.61,.28-8.41,0-.7-.02-1.39-.16-2.08-.28-2.74-.49-5.41-1.22-8.01-2.22-3.29-1.27-6.38-2.9-9.13-5.12-2.12-1.71-3.91-3.7-5.1-6.18-.96-1.99-1.35-4.08-1.16-6.27,.21-2.39,1.13-4.52,2.52-6.45,1.66-2.3,3.78-4.1,6.14-5.63,3.21-2.07,6.69-3.54,10.35-4.6,2.02-.58,4.08-1,6.17-1.29,.38-.05,.77-.09,1.16-.13,2.26-.24,4.52-.26,6.78,0Z"/>
          <path class="cls-2" d="M85.43,83.33c-.27,2.31-.75,4.57-1.91,6.63-1.05,1.88-2.52,3.29-4.63,3.86-3.51,.96-7.25-.16-9.5-3.33-1.05-1.48-1.65-3.13-1.89-4.92-.32-2.4-.11-4.77,.36-7.13,.43-2.11,1.16-4.11,2.29-5.96,.99-1.63,2.24-3.01,3.88-4.02,.84-.52,1.73-.84,2.72-.86,.5,0,.96-.15,1.37-.44,.88-.61,1.25-1.64,.98-2.71-.24-.93-1.14-1.69-2.15-1.8-.99-.11-2.01,.43-2.44,1.35-.84,1.78-2.24,3.05-3.74,4.24-.31,.24-.66,.41-1.03,.54-.83,.29-1.48,.02-1.87-.77-.29-.6-.4-1.24-.45-1.89-.17-2.11,.07-4.2,.34-6.29,.12-.89,.36-1.73,.77-2.53,.45-.86,.22-2-.45-2.72-.69-.74-1.78-.97-2.73-.6-.9,.36-1.51,1.27-1.53,2.26,0,.41,.04,.81,.25,1.16,.53,.88,.67,1.87,.79,2.87,.03,.21,.05,.42,.1,.63,.08,.81,.2,1.61,.18,2.43-.02,.64,.01,1.27,0,1.91,0,.5-.04,.99-.11,1.49-.12,.26-.02,.57-.17,.83-.04,.06-.05,.14-.08,.21-.43,1.09-1.18,1.39-2.25,.91-.68-.31-1.25-.78-1.8-1.27-.64-.58-1.22-1.22-1.78-1.88-.36-.42-.62-.9-.86-1.4-.46-.96-1.24-1.48-2.3-1.46-1.08,.02-1.84,.58-2.26,1.58-.63,1.51,.41,3.26,2.11,3.35,1.93,.1,3.39,1.05,4.7,2.31,1.91,1.83,3.07,4.12,3.85,6.61,.71,2.25,1.02,4.57,1.02,6.92,0,2.61-.56,5.08-2.15,7.21-1.78,2.38-4.18,3.54-7.16,3.52-2.1-.02-3.92-.71-5.41-2.2-1.02-1.02-1.71-2.25-2.22-3.58-.51-1.32-.83-2.7-1.03-4.1,0-.05,0-.1,0-.15-.32-2.8-.28-5.61,0-8.41,.02-.7,.16-1.39,.28-2.08,.49-2.74,1.22-5.41,2.22-8.01,1.27-3.29,2.9-6.38,5.12-9.13,1.71-2.12,3.7-3.91,6.18-5.1,1.99-.96,4.08-1.35,6.27-1.16,2.39,.21,4.52,1.13,6.45,2.52,2.3,1.66,4.1,3.78,5.63,6.14,2.07,3.21,3.54,6.69,4.6,10.35,.58,2.02,1,4.08,1.29,6.17,.05,.38,.09,.77,.13,1.16,.24,2.26,.26,4.52,0,6.78Z"/>
          <path class="cls-2" d="M88.14,124.26c-2.31-.27-4.57-.75-6.63-1.91-1.88-1.05-3.29-2.52-3.86-4.63-.96-3.51,.16-7.25,3.33-9.5,1.48-1.05,3.13-1.65,4.92-1.89,2.4-.32,4.77-.11,7.13,.36,2.11,.43,4.11,1.16,5.96,2.29,1.63,.99,3.01,2.24,4.02,3.88,.52,.84,.84,1.73,.86,2.72,0,.5,.15,.96,.44,1.37,.61,.88,1.64,1.25,2.71,.98,.93-.24,1.69-1.14,1.8-2.15,.11-.99-.43-2.01-1.35-2.44-1.78-.84-3.05-2.24-4.24-3.74-.24-.31-.41-.66-.54-1.03-.29-.83-.02-1.48,.77-1.87,.6-.29,1.24-.4,1.89-.45,2.11-.17,4.2,.07,6.29,.34,.89,.12,1.73,.36,2.53,.77,.86,.45,2,.22,2.72-.45,.74-.69,.97-1.78,.6-2.73-.36-.9-1.27-1.51-2.26-1.53-.41,0-.81,.04-1.16,.25-.88,.53-1.87,.67-2.87,.79-.21,.03-.42,.05-.63,.1-.81,.08-1.61,.2-2.43,.18-.64-.02-1.27,.01-1.91,0-.5,0-.99-.04-1.49-.11-.26-.12-.57-.02-.83-.17-.06-.04-.14-.05-.21-.08-1.09-.43-1.39-1.18-.91-2.25,.31-.68,.78-1.25,1.27-1.8,.58-.64,1.22-1.22,1.88-1.78,.42-.36,.9-.62,1.4-.86,.96-.46,1.48-1.24,1.46-2.3-.02-1.08-.58-1.84-1.58-2.26-1.51-.63-3.26,.41-3.35,2.11-.1,1.93-1.05,3.39-2.31,4.7-1.83,1.91-4.12,3.07-6.61,3.85-2.25,.71-4.57,1.02-6.92,1.02-2.61,0-5.08-.56-7.21-2.15-2.38-1.78-3.54-4.18-3.52-7.16,.02-2.1,.71-3.92,2.2-5.41,1.02-1.02,2.25-1.71,3.58-2.22,1.32-.51,2.7-.83,4.1-1.03,.05,0,.1,0,.15,0,2.8-.32,5.61-.28,8.41,0,.7,.02,1.39,.16,2.08,.28,2.74,.49,5.41,1.22,8.01,2.22,3.29,1.27,6.38,2.9,9.13,5.12,2.12,1.71,3.91,3.7,5.1,6.18,.96,1.99,1.35,4.08,1.16,6.27-.21,2.39-1.13,4.52-2.52,6.45-1.66,2.3-3.78,4.1-6.14,5.63-3.21,2.07-6.69,3.54-10.35,4.6-2.02,.58-4.08,1-6.17,1.29-.38,.05-.77,.09-1.16,.13-2.26,.24-4.52,.26-6.78,0Z"/>
        </g>
        <g>
          <path class="cls-2" d="M113.54,21.82c.27-2.31,.75-4.57,1.91-6.63,1.05-1.88,2.52-3.29,4.63-3.86,3.51-.96,7.25,.16,9.5,3.33,1.05,1.48,1.65,3.13,1.89,4.92,.32,2.4,.11,4.77-.36,7.13-.43,2.11-1.16,4.11-2.29,5.96-.99,1.63-2.24,3.01-3.88,4.02-.84,.52-1.73,.84-2.72,.86-.5,0-.96,.15-1.37,.44-.88,.61-1.25,1.64-.98,2.71,.24,.93,1.14,1.69,2.15,1.8,.99,.11,2.01-.43,2.44-1.35,.84-1.78,2.24-3.05,3.74-4.24,.31-.24,.66-.41,1.03-.54,.83-.29,1.48-.02,1.87,.77,.29,.6,.4,1.24,.45,1.89,.17,2.11-.07,4.2-.34,6.29-.12,.89-.36,1.73-.77,2.53-.45,.86-.22,2,.45,2.72,.69,.74,1.78,.97,2.73,.6,.9-.36,1.51-1.27,1.53-2.26,0-.41-.04-.81-.25-1.16-.53-.88-.67-1.87-.79-2.87-.03-.21-.05-.42-.1-.63-.08-.81-.2-1.61-.18-2.43,.02-.64-.01-1.27,0-1.91,0-.5,.04-.99,.11-1.49,.12-.26,.02-.57,.17-.83,.04-.06,.05-.14,.08-.21,.43-1.09,1.18-1.39,2.25-.91,.68,.31,1.25,.78,1.8,1.27,.64,.58,1.22,1.22,1.78,1.88,.36,.42,.62,.9,.86,1.4,.46,.96,1.24,1.48,2.3,1.46,1.08-.02,1.84-.58,2.26-1.58,.63-1.51-.41-3.26-2.11-3.35-1.93-.1-3.39-1.05-4.7-2.31-1.91-1.83-3.07-4.12-3.85-6.61-.71-2.25-1.02-4.57-1.02-6.92,0-2.61,.56-5.08,2.15-7.21,1.78-2.38,4.18-3.54,7.16-3.52,2.1,.02,3.92,.71,5.41,2.2,1.02,1.02,1.71,2.25,2.22,3.58,.51,1.32,.83,2.7,1.03,4.1,0,.05,0,.1,0,.15,.32,2.8,.28,5.61,0,8.41-.02,.7-.16,1.39-.28,2.08-.49,2.74-1.22,5.41-2.22,8.01-1.27,3.29-2.9,6.38-5.12,9.13-1.71,2.12-3.7,3.91-6.18,5.1-1.99,.96-4.08,1.35-6.27,1.16-2.39-.21-4.52-1.13-6.45-2.52-2.3-1.66-4.1-3.78-5.63-6.14-2.07-3.21-3.54-6.69-4.6-10.35-.58-2.02-1-4.08-1.29-6.17-.05-.38-.09-.77-.13-1.16-.24-2.26-.26-4.52,0-6.78Z"/>
          <path class="cls-2" d="M110.83-19.11c2.31,.27,4.57,.75,6.63,1.91,1.88,1.05,3.29,2.52,3.86,4.63,.96,3.51-.16,7.25-3.33,9.5-1.48,1.05-3.13,1.65-4.92,1.89-2.4,.32-4.77,.11-7.13-.36-2.11-.43-4.11-1.16-5.96-2.29-1.63-.99-3.01-2.24-4.02-3.88-.52-.84-.84-1.73-.86-2.72,0-.5-.15-.96-.44-1.37-.61-.88-1.64-1.25-2.71-.98-.93,.24-1.69,1.14-1.8,2.15-.11,.99,.43,2.01,1.35,2.44,1.78,.84,3.05,2.24,4.24,3.74,.24,.31,.41,.66,.54,1.03,.29,.83,.02,1.48-.77,1.87-.6,.29-1.24,.4-1.89,.45-2.11,.17-4.2-.07-6.29-.34-.89-.12-1.73-.36-2.53-.77-.86-.45-2-.22-2.72,.45-.74,.69-.97,1.78-.6,2.73,.36,.9,1.27,1.51,2.26,1.53,.41,0,.81-.04,1.16-.25,.88-.53,1.87-.67,2.87-.79,.21-.03,.42-.05,.63-.1,.81-.08,1.61-.2,2.43-.18,.64,.02,1.27-.01,1.91,0,.5,0,.99,.04,1.49,.11,.26,.12,.57,.02,.83,.17,.06,.04,.14,.05,.21,.08,1.09,.43,1.39,1.18,.91,2.25-.31,.68-.78,1.25-1.27,1.8-.58,.64-1.22,1.22-1.88,1.78-.42,.36-.9,.62-1.4,.86-.96,.46-1.48,1.24-1.46,2.3,.02,1.08,.58,1.84,1.58,2.26,1.51,.63,3.26-.41,3.35-2.11,.1-1.93,1.05-3.39,2.31-4.7,1.83-1.91,4.12-3.07,6.61-3.85,2.25-.71,4.57-1.02,6.92-1.02,2.61,0,5.08,.56,7.21,2.15,2.38,1.78,3.54,4.18,3.52,7.16-.02,2.1-.71,3.92-2.2,5.41-1.02,1.02-2.25,1.71-3.58,2.22-1.32,.51-2.7,.83-4.1,1.03-.05,0-.1,0-.15,0-2.8,.32-5.61,.28-8.41,0-.7-.02-1.39-.16-2.08-.28-2.74-.49-5.41-1.22-8.01-2.22-3.29-1.27-6.38-2.9-9.13-5.12-2.12-1.71-3.91-3.7-5.1-6.18-.96-1.99-1.35-4.08-1.16-6.27,.21-2.39,1.13-4.52,2.52-6.45,1.66-2.3,3.78-4.1,6.14-5.63,3.21-2.07,6.69-3.54,10.35-4.6,2.02-.58,4.08-1,6.17-1.29,.38-.05,.77-.09,1.16-.13,2.26-.24,4.52-.26,6.78,0Z"/>
          <path class="cls-2" d="M151.75-21.82c-.27,2.31-.75,4.57-1.91,6.63-1.05,1.88-2.52,3.29-4.63,3.86-3.51,.96-7.25-.16-9.5-3.33-1.05-1.48-1.65-3.13-1.89-4.92-.32-2.4-.11-4.77,.36-7.13,.43-2.11,1.16-4.11,2.29-5.96,.99-1.63,2.24-3.01,3.88-4.02,.84-.52,1.73-.84,2.72-.86,.5,0,.96-.15,1.37-.44,.88-.61,1.25-1.64,.98-2.71-.24-.93-1.14-1.69-2.15-1.8-.99-.11-2.01,.43-2.44,1.35-.84,1.78-2.24,3.05-3.74,4.24-.31,.24-.66,.41-1.03,.54-.83,.29-1.48,.02-1.87-.77-.29-.6-.4-1.24-.45-1.89-.17-2.11,.07-4.2,.34-6.29,.12-.89,.36-1.73,.77-2.53,.45-.86,.22-2-.45-2.72-.69-.74-1.78-.97-2.73-.6-.9,.36-1.51,1.27-1.53,2.26,0,.41,.04,.81,.25,1.16,.53,.88,.67,1.87,.79,2.87,.03,.21,.05,.42,.1,.63,.08,.81,.2,1.61,.18,2.43-.02,.64,.01,1.27,0,1.91,0,.5-.04,.99-.11,1.49-.12,.26-.02,.57-.17,.83-.04,.06-.05,.14-.08,.21-.43,1.09-1.18,1.39-2.25,.91-.68-.31-1.25-.78-1.8-1.27-.64-.58-1.22-1.22-1.78-1.88-.36-.42-.62-.9-.86-1.4-.46-.96-1.24-1.48-2.3-1.46-1.08,.02-1.84,.58-2.26,1.58-.63,1.51,.41,3.26,2.11,3.35,1.93,.1,3.39,1.05,4.7,2.31,1.91,1.83,3.07,4.12,3.85,6.61,.71,2.25,1.02,4.57,1.02,6.92,0,2.61-.56,5.08-2.15,7.21-1.78,2.38-4.18,3.54-7.16,3.52-2.1-.02-3.92-.71-5.41-2.2-1.02-1.02-1.71-2.25-2.22-3.58-.51-1.32-.83-2.7-1.03-4.1,0-.05,0-.1,0-.15-.32-2.8-.28-5.61,0-8.41,.02-.7,.16-1.39,.28-2.08,.49-2.74,1.22-5.41,2.22-8.01,1.27-3.29,2.9-6.38,5.12-9.13,1.71-2.12,3.7-3.91,6.18-5.1,1.99-.96,4.08-1.35,6.27-1.16,2.39,.21,4.52,1.13,6.45,2.52,2.3,1.66,4.1,3.78,5.63,6.14,2.07,3.21,3.54,6.69,4.6,10.35,.58,2.02,1,4.08,1.29,6.17,.05,.38,.09,.77,.13,1.16,.24,2.26,.26,4.52,0,6.78Z"/>
          <path class="cls-2" d="M154.47,19.11c-2.31-.27-4.57-.75-6.63-1.91-1.88-1.05-3.29-2.52-3.86-4.63-.96-3.51,.16-7.25,3.33-9.5,1.48-1.05,3.13-1.65,4.92-1.89,2.4-.32,4.77-.11,7.13,.36,2.11,.43,4.11,1.16,5.96,2.29,1.63,.99,3.01,2.24,4.02,3.88,.52,.84,.84,1.73,.86,2.72,0,.5,.15,.96,.44,1.37,.61,.88,1.64,1.25,2.71,.98,.93-.24,1.69-1.14,1.8-2.15,.11-.99-.43-2.01-1.35-2.44-1.78-.84-3.05-2.24-4.24-3.74-.24-.31-.41-.66-.54-1.03-.29-.83-.02-1.48,.77-1.87,.6-.29,1.24-.4,1.89-.45,2.11-.17,4.2,.07,6.29,.34,.89,.12,1.73,.36,2.53,.77,.86,.45,2,.22,2.72-.45,.74-.69,.97-1.78,.6-2.73-.36-.9-1.27-1.51-2.26-1.53-.41,0-.81,.04-1.16,.25-.88,.53-1.87,.67-2.87,.79-.21,.03-.42,.05-.63,.1-.81,.08-1.61,.2-2.43,.18-.64-.02-1.27,.01-1.91,0-.5,0-.99-.04-1.49-.11-.26-.12-.57-.02-.83-.17-.06-.04-.14-.05-.21-.08-1.09-.43-1.39-1.18-.91-2.25,.31-.68,.78-1.25,1.27-1.8,.58-.64,1.22-1.22,1.88-1.78,.42-.36,.9-.62,1.4-.86,.96-.46,1.48-1.24,1.46-2.3-.02-1.08-.58-1.84-1.58-2.26-1.51-.63-3.26,.41-3.35,2.11-.1,1.93-1.05,3.39-2.31,4.7-1.83,1.91-4.12,3.07-6.61,3.85-2.25,.71-4.57,1.02-6.92,1.02-2.61,0-5.08-.56-7.21-2.15-2.38-1.78-3.54-4.18-3.52-7.16,.02-2.1,.71-3.92,2.2-5.41,1.02-1.02,2.25-1.71,3.58-2.22,1.32-.51,2.7-.83,4.1-1.03,.05,0,.1,0,.15,0,2.8-.32,5.61-.28,8.41,0,.7,.02,1.39,.16,2.08,.28,2.74,.49,5.41,1.22,8.01,2.22,3.29,1.27,6.38,2.9,9.13,5.12,2.12,1.71,3.91,3.7,5.1,6.18,.96,1.99,1.35,4.08,1.16,6.27-.21,2.39-1.13,4.52-2.52,6.45-1.66,2.3-3.78,4.1-6.14,5.63-3.21,2.07-6.69,3.54-10.35,4.6-2.02,.58-4.08,1-6.17,1.29-.38,.05-.77,.09-1.16,.13-2.26,.24-4.52,.26-6.78,0Z"/>
        </g>
        <g>
          <path class="cls-2" d="M-19.11,21.82c.27-2.31,.75-4.57,1.91-6.63,1.05-1.88,2.52-3.29,4.63-3.86,3.51-.96,7.25,.16,9.5,3.33,1.05,1.48,1.65,3.13,1.89,4.92,.32,2.4,.11,4.77-.36,7.13-.43,2.11-1.16,4.11-2.29,5.96-.99,1.63-2.24,3.01-3.88,4.02-.84,.52-1.73,.84-2.72,.86-.5,0-.96,.15-1.37,.44-.88,.61-1.25,1.64-.98,2.71,.24,.93,1.14,1.69,2.15,1.8,.99,.11,2.01-.43,2.44-1.35,.84-1.78,2.24-3.05,3.74-4.24,.31-.24,.66-.41,1.03-.54,.83-.29,1.48-.02,1.87,.77,.29,.6,.4,1.24,.45,1.89,.17,2.11-.07,4.2-.34,6.29-.12,.89-.36,1.73-.77,2.53-.45,.86-.22,2,.45,2.72,.69,.74,1.78,.97,2.73,.6,.9-.36,1.51-1.27,1.53-2.26,0-.41-.04-.81-.25-1.16-.53-.88-.67-1.87-.79-2.87-.03-.21-.05-.42-.1-.63-.08-.81-.2-1.61-.18-2.43,.02-.64-.01-1.27,0-1.91,0-.5,.04-.99,.11-1.49,.12-.26,.02-.57,.17-.83,.04-.06,.05-.14,.08-.21,.43-1.09,1.18-1.39,2.25-.91,.68,.31,1.25,.78,1.8,1.27,.64,.58,1.22,1.22,1.78,1.88,.36,.42,.62,.9,.86,1.4,.46,.96,1.24,1.48,2.3,1.46,1.08-.02,1.84-.58,2.26-1.58,.63-1.51-.41-3.26-2.11-3.35-1.93-.1-3.39-1.05-4.7-2.31-1.91-1.83-3.07-4.12-3.85-6.61-.71-2.25-1.02-4.57-1.02-6.92,0-2.61,.56-5.08,2.15-7.21,1.78-2.38,4.18-3.54,7.16-3.52,2.1,.02,3.92,.71,5.41,2.2,1.02,1.02,1.71,2.25,2.22,3.58,.51,1.32,.83,2.7,1.03,4.1,0,.05,0,.1,0,.15,.32,2.8,.28,5.61,0,8.41-.02,.7-.16,1.39-.28,2.08-.49,2.74-1.22,5.41-2.22,8.01-1.27,3.29-2.9,6.38-5.12,9.13-1.71,2.12-3.7,3.91-6.18,5.1-1.99,.96-4.08,1.35-6.27,1.16-2.39-.21-4.52-1.13-6.45-2.52-2.3-1.66-4.1-3.78-5.63-6.14-2.07-3.21-3.54-6.69-4.6-10.35-.58-2.02-1-4.08-1.29-6.17-.05-.38-.09-.77-.13-1.16-.24-2.26-.26-4.52,0-6.78Z"/>
          <path class="cls-2" d="M-21.82-19.11c2.31,.27,4.57,.75,6.63,1.91,1.88,1.05,3.29,2.52,3.86,4.63,.96,3.51-.16,7.25-3.33,9.5-1.48,1.05-3.13,1.65-4.92,1.89-2.4,.32-4.77,.11-7.13-.36-2.11-.43-4.11-1.16-5.96-2.29-1.63-.99-3.01-2.24-4.02-3.88-.52-.84-.84-1.73-.86-2.72,0-.5-.15-.96-.44-1.37-.61-.88-1.64-1.25-2.71-.98-.93,.24-1.69,1.14-1.8,2.15-.11,.99,.43,2.01,1.35,2.44,1.78,.84,3.05,2.24,4.24,3.74,.24,.31,.41,.66,.54,1.03,.29,.83,.02,1.48-.77,1.87-.6,.29-1.24,.4-1.89,.45-2.11,.17-4.2-.07-6.29-.34-.89-.12-1.73-.36-2.53-.77-.86-.45-2-.22-2.72,.45-.74,.69-.97,1.78-.6,2.73,.36,.9,1.27,1.51,2.26,1.53,.41,0,.81-.04,1.16-.25,.88-.53,1.87-.67,2.87-.79,.21-.03,.42-.05,.63-.1,.81-.08,1.61-.2,2.43-.18,.64,.02,1.27-.01,1.91,0,.5,0,.99,.04,1.49,.11,.26,.12,.57,.02,.83,.17,.06,.04,.14,.05,.21,.08,1.09,.43,1.39,1.18,.91,2.25-.31,.68-.78,1.25-1.27,1.8-.58,.64-1.22,1.22-1.88,1.78-.42,.36-.9,.62-1.4,.86-.96,.46-1.48,1.24-1.46,2.3,.02,1.08,.58,1.84,1.58,2.26,1.51,.63,3.26-.41,3.35-2.11,.1-1.93,1.05-3.39,2.31-4.7,1.83-1.91,4.12-3.07,6.61-3.85,2.25-.71,4.57-1.02,6.92-1.02,2.61,0,5.08,.56,7.21,2.15,2.38,1.78,3.54,4.18,3.52,7.16-.02,2.1-.71,3.92-2.2,5.41-1.02,1.02-2.25,1.71-3.58,2.22-1.32,.51-2.7,.83-4.1,1.03-.05,0-.1,0-.15,0-2.8,.32-5.61,.28-8.41,0-.7-.02-1.39-.16-2.08-.28-2.74-.49-5.41-1.22-8.01-2.22-3.29-1.27-6.38-2.9-9.13-5.12-2.12-1.71-3.91-3.7-5.1-6.18-.96-1.99-1.35-4.08-1.16-6.27,.21-2.39,1.13-4.52,2.52-6.45,1.66-2.3,3.78-4.1,6.14-5.63,3.21-2.07,6.69-3.54,10.35-4.6,2.02-.58,4.08-1,6.17-1.29,.38-.05,.77-.09,1.16-.13,2.26-.24,4.52-.26,6.78,0Z"/>
          <path class="cls-2" d="M19.11-21.82c-.27,2.31-.75,4.57-1.91,6.63-1.05,1.88-2.52,3.29-4.63,3.86-3.51,.96-7.25-.16-9.5-3.33-1.05-1.48-1.65-3.13-1.89-4.92-.32-2.4-.11-4.77,.36-7.13,.43-2.11,1.16-4.11,2.29-5.96,.99-1.63,2.24-3.01,3.88-4.02,.84-.52,1.73-.84,2.72-.86,.5,0,.96-.15,1.37-.44,.88-.61,1.25-1.64,.98-2.71-.24-.93-1.14-1.69-2.15-1.8-.99-.11-2.01,.43-2.44,1.35-.84,1.78-2.24,3.05-3.74,4.24-.31,.24-.66,.41-1.03,.54-.83,.29-1.48,.02-1.87-.77-.29-.6-.4-1.24-.45-1.89-.17-2.11,.07-4.2,.34-6.29,.12-.89,.36-1.73,.77-2.53,.45-.86,.22-2-.45-2.72-.69-.74-1.78-.97-2.73-.6-.9,.36-1.51,1.27-1.53,2.26,0,.41,.04,.81,.25,1.16,.53,.88,.67,1.87,.79,2.87,.03,.21,.05,.42,.1,.63,.08,.81,.2,1.61,.18,2.43-.02,.64,.01,1.27,0,1.91,0,.5-.04,.99-.11,1.49-.12,.26-.02,.57-.17,.83-.04,.06-.05,.14-.08,.21-.43,1.09-1.18,1.39-2.25,.91-.68-.31-1.25-.78-1.8-1.27-.64-.58-1.22-1.22-1.78-1.88-.36-.42-.62-.9-.86-1.4-.46-.96-1.24-1.48-2.3-1.46-1.08,.02-1.84,.58-2.26,1.58-.63,1.51,.41,3.26,2.11,3.35,1.93,.1,3.39,1.05,4.7,2.31,1.91,1.83,3.07,4.12,3.85,6.61,.71,2.25,1.02,4.57,1.02,6.92,0,2.61-.56,5.08-2.15,7.21-1.78,2.38-4.18,3.54-7.16,3.52-2.1-.02-3.92-.71-5.41-2.2-1.02-1.02-1.71-2.25-2.22-3.58-.51-1.32-.83-2.7-1.03-4.1,0-.05,0-.1,0-.15-.32-2.8-.28-5.61,0-8.41,.02-.7,.16-1.39,.28-2.08,.49-2.74,1.22-5.41,2.22-8.01,1.27-3.29,2.9-6.38,5.12-9.13,1.71-2.12,3.7-3.91,6.18-5.1,1.99-.96,4.08-1.35,6.27-1.16,2.39,.21,4.52,1.13,6.45,2.52,2.3,1.66,4.1,3.78,5.63,6.14,2.07,3.21,3.54,6.69,4.6,10.35,.58,2.02,1,4.08,1.29,6.17,.05,.38,.09,.77,.13,1.16,.24,2.26,.26,4.52,0,6.78Z"/>
          <path class="cls-2" d="M21.82,19.11c-2.31-.27-4.57-.75-6.63-1.91-1.88-1.05-3.29-2.52-3.86-4.63-.96-3.51,.16-7.25,3.33-9.5,1.48-1.05,3.13-1.65,4.92-1.89,2.4-.32,4.77-.11,7.13,.36,2.11,.43,4.11,1.16,5.96,2.29,1.63,.99,3.01,2.24,4.02,3.88,.52,.84,.84,1.73,.86,2.72,0,.5,.15,.96,.44,1.37,.61,.88,1.64,1.25,2.71,.98,.93-.24,1.69-1.14,1.8-2.15,.11-.99-.43-2.01-1.35-2.44-1.78-.84-3.05-2.24-4.24-3.74-.24-.31-.41-.66-.54-1.03-.29-.83-.02-1.48,.77-1.87,.6-.29,1.24-.4,1.89-.45,2.11-.17,4.2,.07,6.29,.34,.89,.12,1.73,.36,2.53,.77,.86,.45,2,.22,2.72-.45,.74-.69,.97-1.78,.6-2.73-.36-.9-1.27-1.51-2.26-1.53-.41,0-.81,.04-1.16,.25-.88,.53-1.87,.67-2.87,.79-.21,.03-.42,.05-.63,.1-.81,.08-1.61,.2-2.43,.18-.64-.02-1.27,.01-1.91,0-.5,0-.99-.04-1.49-.11-.26-.12-.57-.02-.83-.17-.06-.04-.14-.05-.21-.08-1.09-.43-1.39-1.18-.91-2.25,.31-.68,.78-1.25,1.27-1.8,.58-.64,1.22-1.22,1.88-1.78,.42-.36,.9-.62,1.4-.86,.96-.46,1.48-1.24,1.46-2.3-.02-1.08-.58-1.84-1.58-2.26-1.51-.63-3.26,.41-3.35,2.11-.1,1.93-1.05,3.39-2.31,4.7-1.83,1.91-4.12,3.07-6.61,3.85-2.25,.71-4.57,1.02-6.92,1.02-2.61,0-5.08-.56-7.21-2.15-2.38-1.78-3.54-4.18-3.52-7.16,.02-2.1,.71-3.92,2.2-5.41,1.02-1.02,2.25-1.71,3.58-2.22,1.32-.51,2.7-.83,4.1-1.03,.05,0,.1,0,.15,0,2.8-.32,5.61-.28,8.41,0,.7,.02,1.39,.16,2.08,.28,2.74,.49,5.41,1.22,8.01,2.22,3.29,1.27,6.38,2.9,9.13,5.12,2.12,1.71,3.91,3.7,5.1,6.18,.96,1.99,1.35,4.08,1.16,6.27-.21,2.39-1.13,4.52-2.52,6.45-1.66,2.3-3.78,4.1-6.14,5.63-3.21,2.07-6.69,3.54-10.35,4.6-2.02,.58-4.08,1-6.17,1.29-.38,.05-.77,.09-1.16,.13-2.26,.24-4.52,.26-6.78,0Z"/>
        </g>
      </g>
    </pattern>
  </defs>
  <rect class="cls-1" x=".75" y=".75" width="1096.85" height="678.13" rx="107.9" ry="107.9"/>
</svg>